<svg preserveAspectRatio="none" overflow="visible" style="display: block;" width="31.9092" height="31.8973" viewBox="0 0 31.9092 31.8973" fill="none" xmlns="http://www.w3.org/2000/svg">
<g id="wrap">
<path id="Vector" d="M21.7892 10.1196L10.1531 21.7557M3.7414 10.8728C3.52246 9.88659 3.55608 8.86107 3.83913 7.89131C4.12219 6.92156 4.64552 6.03898 5.36059 5.32539C6.07567 4.61181 6.95935 4.09033 7.9297 3.80931C8.90004 3.52828 9.92563 3.49681 10.9114 3.71782C11.4539 2.86927 12.2014 2.17096 13.0848 1.68725C13.9682 1.20354 14.9592 0.95 15.9664 0.95C16.9735 0.95 17.9645 1.20354 18.8479 1.68725C19.7314 2.17096 20.4788 2.86927 21.0214 3.71782C22.0086 3.49585 23.036 3.52718 24.0078 3.80889C24.9797 4.09059 25.8646 4.61352 26.5801 5.32904C27.2956 6.04456 27.8186 6.92942 28.1003 7.90131C28.382 8.8732 28.4133 9.90055 28.1913 10.8878C29.0399 11.4304 29.7382 12.1778 30.2219 13.0612C30.7056 13.9446 30.9592 14.9356 30.9592 15.9428C30.9592 16.95 30.7056 17.9409 30.2219 18.8244C29.7382 19.7078 29.0399 20.4552 28.1913 20.9978C28.4123 21.9835 28.3809 23.0091 28.0998 23.9795C27.8188 24.9498 27.2973 25.8335 26.5838 26.5486C25.8702 27.2636 24.9876 27.787 24.0178 28.07C23.0481 28.3531 22.0226 28.3867 21.0364 28.1678C20.4945 29.0196 19.7465 29.7209 18.8615 30.2067C17.9766 30.6926 16.9834 30.9473 15.9739 30.9473C14.9643 30.9473 13.9711 30.6926 13.0862 30.2067C12.2013 29.7209 11.4532 29.0196 10.9114 28.1678C9.92563 28.3888 8.90004 28.3573 7.9297 28.0763C6.95935 27.7952 6.07567 27.2738 5.36059 26.5602C4.64552 25.8466 4.12219 24.964 3.83913 23.9943C3.55608 23.0245 3.52246 21.999 3.7414 21.0128C2.88633 20.4716 2.18202 19.723 1.69397 18.8366C1.20593 17.9502 0.95 16.9547 0.95 15.9428C0.95 14.9309 1.20593 13.9354 1.69397 13.049C2.18202 12.1625 2.88633 11.4139 3.7414 10.8728ZM13.4826 11.3696C13.4826 12.5172 12.5523 13.4475 11.4047 13.4475C10.2572 13.4475 9.32687 12.5172 9.32687 11.3696C9.32687 10.222 10.2572 9.29171 11.4047 9.29171C12.5523 9.29171 13.4826 10.222 13.4826 11.3696ZM22.6154 20.5082C22.6154 21.6557 21.6851 22.586 20.5376 22.586C19.39 22.586 18.4597 21.6557 18.4597 20.5082C18.4597 19.3606 19.39 18.4303 20.5376 18.4303C21.6851 18.4303 22.6154 19.3606 22.6154 20.5082Z" stroke="black" stroke-width="1.9" stroke-linecap="round" stroke-linejoin="round"/>
</g>
</svg>
