<svg preserveAspectRatio="none" overflow="visible" style="display: block;" width="102.932" height="12.9219" viewBox="0 0 102.932 12.9219" fill="none" xmlns="http://www.w3.org/2000/svg">
<g id="Group">
<path id="Vector" d="M53.398 7.48786C54.538 8.54586 55.2235 9.92424 56.0505 11.1909C56.4007 11.7273 56.1846 12.3457 55.6482 12.6735C55.0223 13.0535 54.2102 12.9194 53.8004 12.3308C53.1447 11.3771 52.4444 10.4458 51.893 9.43249C51.2522 8.25528 50.388 7.72628 49.0394 7.89019C48.3092 7.9796 48.3018 7.9051 48.3018 8.62782C48.3018 9.61131 48.3018 10.5948 48.3018 11.5708C48.3018 12.3755 47.8324 12.8747 47.0798 12.8747C46.2901 12.8747 45.6568 12.3159 45.6568 11.5634C45.6568 8.18077 45.6568 4.7907 45.6568 1.40808C45.6568 0.79712 46.0963 0.27557 46.7148 0.268119C48.6817 0.268119 50.6562 0.111654 52.6157 0.335175C54.5827 0.558696 55.6407 1.60925 55.8493 3.45702C56.043 5.12598 55.3948 6.69808 53.5471 7.4208C53.4949 7.44315 53.4427 7.4655 53.398 7.48786ZM50.1719 2.36177C49.5833 2.36177 49.0915 2.37667 48.6072 2.36177C48.3539 2.35432 48.2869 2.42882 48.2869 2.68215C48.3018 3.60604 48.3092 4.52992 48.2869 5.45381C48.2869 5.75929 48.3912 5.81145 48.6668 5.804C49.4194 5.78909 50.1644 5.804 50.917 5.804C51.3863 5.804 51.8557 5.76674 52.3028 5.60283C53.0404 5.32715 53.3757 4.69384 53.2863 3.7923C53.2118 3.02488 52.7945 2.60019 51.9973 2.45863C51.3565 2.34687 50.7083 2.39157 50.1719 2.37667V2.36177Z" fill="#EC4359"/>
<path id="Vector_2" d="M89.6687 7.49884C90.7267 8.37802 91.2632 9.61484 92.038 10.6803C92.0976 10.7622 92.1498 10.8517 92.202 10.9411C92.6415 11.6265 92.5745 12.2598 92.0157 12.6473C91.3898 13.0794 90.5181 12.9528 90.0934 12.3343C89.4452 11.3956 88.8193 10.4344 88.1935 9.48073C87.513 8.43763 86.5444 7.91359 85.2877 7.90863C84.8208 7.90863 84.5873 8.13463 84.5873 8.58664C84.5873 9.59994 84.5873 10.6058 84.5873 11.6191C84.5873 12.3716 84.1328 12.8633 83.425 12.8783C82.6501 12.9006 82.0392 12.3493 82.0317 11.6042C82.0317 8.19175 82.0317 4.77933 82.0317 1.3669C82.0317 0.770847 82.4341 0.2791 83.0227 0.2791C85.0046 0.2791 86.9939 0.137536 88.9684 0.353607C90.8236 0.554776 91.9039 1.65003 92.1498 3.44565C92.3957 5.21892 91.5761 6.68671 89.9593 7.39453C89.8699 7.43178 89.7805 7.46904 89.6762 7.51374L89.6687 7.49884ZM86.4649 2.3653C85.8763 2.3653 85.392 2.37275 84.9077 2.3653C84.6693 2.35785 84.5724 2.41 84.5799 2.67078C84.5948 3.60957 84.5948 4.54091 84.5799 5.4797C84.5799 5.71812 84.632 5.80753 84.8928 5.80753C85.8018 5.78517 86.7108 5.80008 87.6198 5.78517C87.9551 5.78517 88.2903 5.71812 88.6033 5.59146C89.326 5.30088 89.6836 4.66012 89.5868 3.82564C89.4899 3.00606 89.1025 2.60372 88.2903 2.45471C87.6496 2.34295 87.0014 2.38765 86.4649 2.37275V2.3653Z" fill="#EC4359"/>
<path id="Vector_3" d="M11.1314 6.43659C11.1314 8.12045 11.1314 9.80431 11.1314 11.4956C11.1314 12.345 10.6545 12.8517 9.86474 12.8591C9.05261 12.8591 8.48636 12.3078 8.48636 11.4733C8.48636 10.2886 8.47891 9.0965 8.48636 7.91183C8.48636 7.63616 8.4342 7.53185 8.12872 7.5393C6.42251 7.5542 4.7163 7.5542 3.01008 7.5393C2.71951 7.5393 2.645 7.62126 2.645 7.90438C2.6599 9.10395 2.65245 10.311 2.645 11.5105C2.645 12.3525 2.19051 12.8442 1.41563 12.8591C0.603506 12.8666 0 12.3003 0 11.5031C0 8.13536 0 4.76018 0 1.39246C0 0.580337 0.573705 0.0513369 1.42309 0.0587876C2.20541 0.0662383 2.645 0.528183 2.645 1.34776C2.645 2.54732 2.65245 3.75434 2.645 4.9539C2.645 5.24448 2.68971 5.35624 3.01754 5.35624C4.72375 5.34134 6.42996 5.34134 8.13617 5.35624C8.4044 5.35624 8.48636 5.28919 8.47891 5.01351C8.464 3.78414 8.464 2.54732 8.47891 1.31796C8.47891 0.662295 8.9632 0.155647 9.61887 0.073689C10.349 -0.0231702 10.9004 0.282309 11.0718 0.908169C11.1165 1.07208 11.1239 1.25835 11.1239 1.42972C11.1239 3.09868 11.1239 4.77509 11.1239 6.44405L11.1314 6.43659Z" fill="#EC4359"/>
<path id="Vector_4" d="M35.4996 6.43634C35.4996 4.79718 35.4996 3.15802 35.4996 1.51142C35.4996 0.684388 35.9392 0.252247 36.7885 0.252247C38.9344 0.252247 41.0802 0.252247 43.226 0.252247C43.9785 0.252247 44.4032 0.617332 44.4106 1.25064C44.4181 1.93611 43.9412 2.4353 43.2185 2.44276C41.6762 2.45766 40.1339 2.45766 38.5842 2.44276C38.2116 2.44276 38.1148 2.53216 38.1297 2.89725C38.1595 3.56781 38.1669 4.24583 38.1297 4.91639C38.1073 5.30383 38.2489 5.36343 38.5991 5.35598C40.0073 5.33363 41.4229 5.34853 42.8311 5.34853C43.6283 5.34853 44.0381 5.69127 44.053 6.35438C44.0679 7.05475 43.5761 7.53904 42.8236 7.54649C41.4005 7.55394 39.97 7.56139 38.5469 7.54649C38.2191 7.54649 38.1222 7.621 38.1297 7.95628C38.1595 8.71625 38.1595 9.48368 38.1297 10.2436C38.1148 10.5938 38.234 10.646 38.5544 10.646C40.0818 10.6311 41.6092 10.6385 43.144 10.646C43.9785 10.646 44.4181 11.0111 44.4106 11.7114C44.4106 12.4044 43.9189 12.8439 43.1291 12.8439C41.0429 12.8439 38.9567 12.8439 36.8631 12.8439C36.0211 12.8439 35.4996 12.3075 35.4921 11.4581C35.4921 9.78916 35.4921 8.1202 35.4921 6.44379L35.4996 6.43634Z" fill="#EC4359"/>
<path id="Vector_5" d="M74.5863 0.0448205C75.1526 0.0597219 75.6518 0.290694 75.9349 0.894201C77.5145 4.26937 79.1089 7.64454 80.6885 11.0272C81.0312 11.7573 80.8002 12.4055 80.1222 12.7185C79.4293 13.0389 78.7587 12.7781 78.4085 12.0554C78.1329 11.4742 77.8572 10.8931 77.6039 10.297C77.507 10.0735 77.3878 9.99897 77.1419 9.99897C75.4357 10.0139 73.7295 10.0139 72.0233 9.99897C71.7551 9.99897 71.6284 10.0884 71.5315 10.3193C71.2782 10.908 71.01 11.4966 70.7269 12.0777C70.4065 12.7483 69.6838 13.0091 69.0206 12.711C68.3352 12.4055 68.0968 11.7499 68.4395 11.0197C70.0116 7.652 71.5837 4.28427 73.1558 0.916553C73.424 0.335398 73.886 0.0597221 74.5789 0.03737L74.5863 0.0448205ZM76.4937 7.79356C75.853 6.36302 75.2345 4.96974 74.5714 3.48705C73.9083 4.96974 73.2899 6.36302 72.6491 7.79356H76.4863H76.4937Z" fill="#EC4359"/>
<path id="Vector_6" d="M94.0275 6.46614C94.0275 4.82698 94.0275 3.18783 94.0275 1.54122C94.0275 0.676938 94.4522 0.252247 95.3314 0.252247C97.4623 0.252247 99.5932 0.252247 101.724 0.252247C102.484 0.252247 102.909 0.609881 102.931 1.23574C102.946 1.93611 102.447 2.44276 101.709 2.45021C100.137 2.45766 98.565 2.46511 96.9929 2.45021C96.6576 2.45021 96.5756 2.53962 96.5831 2.86745C96.6054 3.55291 96.6054 4.24583 96.5831 4.93129C96.5682 5.25912 96.6427 5.37834 97.0078 5.37088C98.4309 5.34853 99.8614 5.36343 101.284 5.36343C102.149 5.36343 102.581 5.70617 102.588 6.38418C102.588 7.09945 102.067 7.55394 101.24 7.56139C99.8316 7.56139 98.416 7.56884 97.0078 7.56139C96.6949 7.56139 96.5682 7.61355 96.5831 7.96373C96.6129 8.73861 96.6054 9.51348 96.5831 10.2958C96.5831 10.5864 96.665 10.6609 96.9482 10.6609C98.5501 10.646 100.152 10.6609 101.754 10.6609C102.439 10.6609 102.871 11.0632 102.894 11.7189C102.916 12.3671 102.492 12.8514 101.813 12.8514C99.623 12.8737 97.4325 12.8663 95.242 12.8514C94.5267 12.8514 94.0349 12.2851 94.0275 11.5475C94.0275 9.86366 94.0275 8.1798 94.0275 6.49594V6.46614Z" fill="#EC4359"/>
<path id="Vector_7" d="M28.0199 0.252247C28.8469 0.304402 29.8602 0.192642 30.881 0.319304C33.1237 0.602431 34.1295 2.47256 34.055 4.25328C33.9581 6.63751 32.4158 8.06804 30.0093 8.08294C29.0407 8.08294 28.0646 8.09039 27.096 8.08294C26.8204 8.08294 26.7458 8.15745 26.7533 8.42568C26.7682 9.46878 26.7607 10.5044 26.7533 11.5475C26.7533 12.382 26.2541 12.8961 25.4643 12.8887C24.6597 12.8812 24.1083 12.3298 24.1083 11.5252C24.1083 8.1649 24.1083 4.81208 24.1083 1.45181C24.1083 0.691839 24.5479 0.267149 25.3228 0.259698C26.1647 0.259698 26.9992 0.259698 28.0199 0.259698V0.252247ZM26.7533 4.14152C26.7533 4.65562 26.7533 5.16972 26.7533 5.67636C26.7533 5.81793 26.7235 5.97439 26.9619 5.96694C28.005 5.92969 29.0481 6.05635 30.0838 5.89243C31.0598 5.73597 31.5143 5.14736 31.5069 4.14152C31.5069 3.16548 31.0449 2.59177 30.0838 2.43531C29.0481 2.27139 28.005 2.3906 26.9619 2.3608C26.7235 2.35335 26.7533 2.50236 26.7533 2.65138C26.7533 3.15057 26.7533 3.64977 26.7533 4.14152Z" fill="#EC4359"/>
<path id="Vector_8" d="M60.0919 6.45441C60.077 6.99831 60.1143 7.54221 60.2409 8.07121C60.7476 10.2096 62.275 10.8429 64.1823 10.5896C64.7113 10.5225 65.1956 10.2915 65.6501 10.0233C65.8364 9.91154 66.0227 9.78487 66.2089 9.67311C66.8646 9.28568 67.3936 9.34528 67.7363 9.82213C68.1014 10.3362 68.0046 11.0962 67.4979 11.5283C66.5517 12.333 65.4341 12.7428 64.2047 12.8769C61.6416 13.1451 59.1084 12.2287 57.9461 9.62841C57.3947 8.38414 57.2383 7.07282 57.35 5.72424C57.4469 4.47997 57.7673 3.29531 58.5198 2.28201C59.9354 0.382079 61.9173 -0.161823 64.1749 0.0393461C65.4043 0.151107 66.5144 0.583248 67.4756 1.36557C67.8704 1.68595 67.9897 2.10319 67.9301 2.58004C67.8332 3.30276 67.2297 3.66039 66.5442 3.41452C66.2462 3.31021 66.0152 3.10904 65.7544 2.93767C64.7262 2.25221 63.5937 2.12554 62.4165 2.40122C61.3883 2.63964 60.7476 3.33256 60.3974 4.3086C60.1441 5.00897 60.077 5.73169 60.0845 6.46931L60.0919 6.45441Z" fill="#EC4359"/>
<path id="Vector_9" d="M17.6952 4.66432C18.7383 3.3679 19.7516 2.10873 20.7649 0.857008C20.8543 0.745247 20.9512 0.626036 21.048 0.521726C21.5249 -0.0221761 22.2029 -0.0966832 22.7319 0.335458C23.2833 0.789951 23.3652 1.47542 22.8958 2.04912C21.9496 3.21143 21.0406 4.40355 20.0124 5.4839C19.1556 6.38543 18.7607 7.33167 18.8873 8.57594C18.9842 9.55944 18.9097 10.5653 18.9097 11.5637C18.9097 12.3609 18.4403 12.8601 17.6878 12.875C16.8607 12.8899 16.2647 12.3311 16.2647 11.5339C16.2647 10.081 16.2647 8.63555 16.2647 7.18266C16.2647 6.95169 16.2051 6.77287 16.0561 6.5866C14.8565 5.12626 13.6644 3.65848 12.4797 2.18323C11.988 1.57228 12.055 0.804853 12.6213 0.342909C13.1875 -0.111584 13.8954 -0.014725 14.3946 0.603684C15.3781 1.8107 16.3541 3.01771 17.3301 4.22473C17.4419 4.35884 17.5537 4.49295 17.7027 4.67177L17.6952 4.66432Z" fill="#EC4359"/>
</g>
</svg>
